{"accessors":[{"bufferView":0,"componentType":5121,"count":6,"max":[3],"min":[0],"type":"SCALAR"},{"bufferView":1,"componentType":5126,"count":4,"max":[4.372000217437744,0.5,2.1855694143368964e-08],"min":[-2.9720001220703125,-0.5,-2.1855694143368964e-08],"type":"VEC3"},{"bufferView":2,"componentType":5126,"count":4,"max":[0.0,-4.371138828673793e-08,1.0],"min":[0.0,-4.371138828673793e-08,1.0],"type":"VEC3"},{"bufferView":3,"componentType":5126,"count":4,"max":[1.0,1.0],"min":[0.0,0.0],"type":"VEC2"}],"asset":{"generator":"Soft8Soft Verge3D for Blender add-on","version":"2.0"},"bufferViews":[{"buffer":0,"byteLength":6,"byteOffset":0,"target":34963},{"buffer":0,"byteLength":48,"byteOffset":8,"target":34962},{"buffer":0,"byteLength":48,"byteOffset":56,"target":34962},{"buffer":0,"byteLength":32,"byteOffset":104,"target":34962}],"buffers":[{"byteLength":136,"uri":"GLIFTEK_Plugins_Lens_Flare_Deluxe.bin"}],"cameras":[{"extensions":{"S8S_v3d_camera_data":{"controls":"ORBIT","enablePan":true,"moveSpeed":1.0,"orbitMaxDistance":100.0,"orbitMaxPolarAngle":3.1415927410125732,"orbitMaxZoom":100.0,"orbitMinDistance":0.0,"orbitMinPolarAngle":0.0,"orbitMinZoom":0.009999999776482582,"orbitTarget":[0.0,0.0,-0.0],"rotateSpeed":1.0,"viewportFitInitialAspect":1.7777777777777777,"viewportFitType":"AUTO"}},"name":"Camera","perspective":{"aspectRatio":1.7777777777777777,"yfov":0.5033799372418416,"zfar":1000000.0,"znear":0.10000000149011612},"type":"perspective"}],"extensions":{"S8S_v3d_data":{"curves":[{"alignX":"center","alignY":"center","bevelSegments":5,"bevelSize":0.0,"bevelThickness":0.0,"curveSegments":11,"font":0,"height":0.0,"lineHeight":0.88,"material":1,"name":"Text","scaledEmSize":true,"size":1.13,"text":"NEXT FLARE =>","type":"font"}],"fonts":[{"name":"Bfont","uri":"bfont.woff"}],"lights":[{"color":[1.0,1.0,1.0],"decay":2,"distance":3.162277695509587,"intensity":10.0,"name":"Point","profile":"blender","shadow":{"bias":-0.0018,"cameraFar":3.162277695509587,"cameraFov":0,"cameraNear":0.05000000074505806,"enabled":true,"expBias":2.5,"mapSize":512,"radius":1.0,"slopeScaledBias":2.5},"type":"point"}]}},"extensionsUsed":["S8S_v3d_material_data","S8S_v3d_data","S8S_v3d_camera_data","S8S_v3d_mesh_data","S8S_v3d_node_data","S8S_v3d_scene_data"],"materials":[{"extensions":{"S8S_v3d_material_data":{"materialIndex":0,"nodeGraph":{"edges":[{"fromNode":1,"fromOutput":0,"toInput":0,"toNode":0}],"nodes":[{"inputs":[[0,0,0,0],[0,0,0,0],[0.0,0.0,0.0]],"is_active_output":true,"name":"Material Output","outputs":[],"type":"OUTPUT_MATERIAL_BL"},{"inputs":[[0.04214473441243172,0.013309194706380367,0.05841444432735443,1.0],1.0],"is_active_output":false,"name":"Emission","outputs":[[0,0,0,0]],"type":"EMISSION_BL"}]},"useCastShadows":true}},"name":"nextFlare_hitbox_material"},{"extensions":{"S8S_v3d_material_data":{"materialIndex":0,"nodeGraph":{"edges":[{"fromNode":1,"fromOutput":0,"toInput":0,"toNode":0}],"nodes":[{"inputs":[[0,0,0,0],[0,0,0,0],[0.0,0.0,0.0]],"is_active_output":true,"name":"Material Output","outputs":[],"type":"OUTPUT_MATERIAL_BL"},{"inputs":[[1.0,1.0,1.0,1.0],1.0],"is_active_output":false,"name":"Emission","outputs":[[0,0,0,0]],"type":"EMISSION_BL"}]},"useCastShadows":true}},"name":"TEXT MATERIAL"},{"extensions":{"S8S_v3d_material_data":{"materialIndex":0,"nodeGraph":{"edges":[{"fromNode":0,"fromOutput":0,"toInput":0,"toNode":1}],"nodes":[{"inputs":[[0.05087608844041824,0.05087608844041824,0.05087608844041824,1.0],1.0],"is_active_output":false,"name":"Background","outputs":[[0,0,0,0]],"type":"BACKGROUND_BL"},{"inputs":[[0,0,0,0],[0,0,0,0]],"is_active_output":true,"name":"World Output","outputs":[],"type":"OUTPUT_WORLD_BL"}]},"useCastShadows":true}},"name":"Verge3D_Environment_World"}],"meshes":[{"extensions":{"S8S_v3d_mesh_data":{"colorLayers":{},"uvLayers":{"UVMap":"TEXCOORD_0"}}},"name":"Plane","primitives":[{"attributes":{"NORMAL":2,"POSITION":1,"TEXCOORD_0":3},"indices":0,"material":0,"mode":4}]}],"nodes":[{"extensions":{"S8S_v3d_node_data":{"constraints":[{"edgeH":"LEFT","edgeV":"TOP","fitShape":"BOX","mute":false,"name":"Canvas Fit","offset":0.0,"target":2,"type":"canvasFit"},{"maxHeight":"Infinity","maxWidth":"Infinity","minHeight":0.0,"minWidth":0.0,"mute":false,"name":"Canvas Visibility Breakpoints","orientation":"ALL","type":"canvasBreakpoints"}],"curve":0,"frustumCulling":true,"groupNames":["Collection 1"],"hidden":false,"hidpiCompositing":true,"objectColor":[1.0,1.0,1.0],"objectIndex":0,"renderOrder":0,"useShadows":false}},"name":"Text","rotation":[3.4900554055639077e-06,-9.116001196502565e-29,-1.3234889800848443e-23,1.0],"scale":[1.0,1.0,0.0024999999441206455],"translation":[0.0,0.0,0.0]},{"children":[0],"name":"v3d_Proxy_Node_0_Text","rotation":[-1.2101618374060763e-08,0.7071068286895752,-1.2101618374060763e-08,0.7071068286895752],"scale":[1.0,1.0,1.0],"translation":[-574.49658203125,-1494.1180419921875,-912.9910888671875]},{"camera":0,"children":[4,1],"extensions":{"S8S_v3d_node_data":{"frustumCulling":true,"groupNames":["Collection 1"],"hidden":false,"hidpiCompositing":false,"objectColor":[0.0,0.0,0.0],"objectIndex":0,"renderOrder":0}},"name":"Camera","rotation":[1.2101620150417602e-08,-0.7071068286895752,1.2101620150417602e-08,0.7071068286895752],"scale":[1.0,0.9999999403953552,0.9999999403953552],"translation":[-912.9912109375,1494.1180419921875,574.49658203125]},{"children":[6],"extensions":{"S8S_v3d_node_data":{"constraints":[{"edgeH":"LEFT","edgeV":"TOP","fitShape":"BOX","mute":false,"name":"Canvas Fit","offset":0.0,"target":2,"type":"canvasFit"},{"maxHeight":"Infinity","maxWidth":"Infinity","minHeight":0.0,"minWidth":0.0,"mute":false,"name":"Canvas Visibility Breakpoints","orientation":"ALL","type":"canvasBreakpoints"}],"frustumCulling":true,"groupNames":["Collection 1"],"hidden":false,"hidpiCompositing":false,"objectColor":[1.0,1.0,1.0],"objectIndex":0,"renderOrder":0,"useShadows":false}},"mesh":0,"name":"Plane","scale":[0.04999999701976776,0.05000000074505806,0.05000000074505806],"translation":[-0.3199999928474426,0.22999998927116394,-1.159999966621399]},{"children":[3],"name":"v3d_Proxy_Node_0_Plane","rotation":[-8.429369557916289e-08,0.0,0.0,1.0],"scale":[1.0,1.0000001192092896,1.0000001192092896],"translation":[0.0,0.0,0.0]},{"extensions":{"S8S_v3d_node_data":{"frustumCulling":true,"groupNames":[],"hidden":false,"hidpiCompositing":false,"light":0,"objectColor":[1.0,1.0,1.0],"objectIndex":0,"renderOrder":0}},"name":"Lens_Flare_Point_Light","rotation":[-0.7071068286895752,0.0,0.0,0.7071068286895752],"scale":[1.0,0.9999999403953552,0.9999999403953552],"translation":[0.0,0.0,0.0]},{"extensions":{"S8S_v3d_node_data":{"frustumCulling":true,"groupNames":["Collection 1"],"hidden":false,"hidpiCompositing":false,"objectColor":[1.0,1.0,1.0],"objectIndex":0,"renderOrder":0}},"name":"Empty","translation":[0.7099999785423279,0.0,0.059999994933605194]}],"scene":0,"scenes":[{"extensions":{"S8S_v3d_scene_data":{"aaMethod":"FXAA","iblEnvironmentMode":"PMREM","physicallyCorrectLights":true,"pmremMaxTileSize":256,"postprocessing":[{"edgeGlow":0.0,"edgeStrength":3.0,"edgeThickness":1.0,"hiddenEdgeColor":[0.10000000149011612,0.10000000149011612,0.10000000149011612,1.0],"pulsePeriod":0.0,"renderHiddenEdge":true,"type":"outline","visibleEdgeColor":[1.0,1.0,1.0,1.0]}],"shadowMap":{"esmDistanceScale":1.0,"renderReverseSided":false,"renderSingleSided":true,"type":"PCFPOISSON"},"worldMaterial":2}},"extras":{"animFrameRate":24,"coordSystem":"Z_UP_RIGHT"},"name":"Scene","nodes":[5,2]}]}
