<svg id="GLIFTEK_Logo_Parts" xmlns="http://www.w3.org/2000/svg" width="999.37" height="138.59" viewBox="0 0 999.37 138.59"><path id="G" d="M45.75,103.74,148.38,50v64.35a96.22,96.22,0,0,1-63.22,22.1C35.62,136.48,3,107.94,3,71.72S35.32,6.54,84.05,6.54A95,95,0,0,1,145.85,27L127,41.94A61.54,61.54,0,0,0,82.43,26.29c-30.4,0-51.87,18.93-51.87,45.12A41.68,41.68,0,0,0,45.75,103.74Zm76.09-17.08L72.6,115.3a90.81,90.81,0,0,0,11,.92,67.72,67.72,0,0,0,38.2-10.43Z" transform="translate(-0.45 -0.46)" fill="#005d7f" stroke="#000" stroke-miterlimit="10" stroke-width="5.09"/><path id="L" d="M293.12,114.78v19.85H197.28V8.37h27.15V114.78Z" transform="translate(-0.45 -0.46)" fill="#0091bf" stroke="#000" stroke-miterlimit="10" stroke-width="5.09"/><path id="I" d="M344.12,136V36.56L371.28,7V136Z" transform="translate(-0.45 -0.46)" fill="#1fd6ff" stroke="#000" stroke-miterlimit="10" stroke-width="5.09"/><path id="F" d="M528,28.22H483.71L532,80.5H461.12v54.13H434.37v-74h46.2L434.37,8.37H528Z" transform="translate(-0.45 -0.46)" fill="#74ffda" stroke="#000" stroke-miterlimit="10" stroke-width="5.09"/><path id="T" d="M624.13,134.63V64.24H587.56V44.8h36.57V28.22H579.36V8.37H696.07V28.22H651.29V44.8h36.57V64.24H651.29v70.39Z" transform="translate(-0.45 -0.46)" fill="#1fd6ff" stroke="#000" stroke-miterlimit="10" stroke-width="5.09"/><path id="E" d="M832.84,28.22H788.77l47.42,51.16H766.28v35.19H837.2v19.85h-98V59.73h45.49L739.23,8.58h93.61Z" transform="translate(-0.45 -0.46)" fill="#0091bf" stroke="#000" stroke-miterlimit="10" stroke-width="5.09"/><path id="K" d="M873.44,134.63V8.37h27.15V33.64l15.6,16.89L955.1,8.37h31.4L932,67.71l62,66.92H960.06L900.59,69.35v65.28Z" transform="translate(-0.45 -0.46)" fill="#005d7f" stroke="#000" stroke-miterlimit="10" stroke-width="5.09"/></svg>