<svg id="Verge3D_Logo" xmlns="http://www.w3.org/2000/svg" width="909.91" height="1000" viewBox="0 0 909.91 1000"><path id="border" d="M486.32,1000c-14.59-4.31-30-6.92-43.59-13.29-28.86-13.47-57.44-27.81-85-43.74C284.15,900.47,211.13,857,138,813.73c-8.66-5.13-16.61-11.45-25-17.11C70.84,768,50,727.63,47.14,677.32c-.87-15.6-2.17-31.22-2.09-46.82q.71-145.1,2.16-290.17c.16-14.26,2.26-28.56,4.33-42.71,5.54-38,24.08-68.42,54.86-91.24,12.29-9.1,24.53-18.49,37.74-26.08q132.95-76.4,266.41-151.87c12.69-7.18,26.46-12.55,40-18.07C485.1-3.72,519.78-3.4,554.14,11,567.93,16.8,582,22.37,594.88,29.83q134.8,78.06,269.11,157c7.84,4.59,15,10.41,22.52,15.5,43.31,29.16,64,70.61,66.5,122,.72,15,2,29.92,1.94,44.88-.49,96.72-1,193.45-2.25,290.17-.21,16.81-2.91,33.73-5.91,50.34-5.39,29.85-19.41,55.53-43.16,74.51-18.77,15-38.27,29.48-59,41.55Q725.21,895.28,604.7,963c-29,16.36-58.91,30.76-92.41,35.64a8.26,8.26,0,0,0-2.52,1.41ZM111,493.72c2.19,44.66,3.26,80.8,5.9,116.82,4.51,61.41,28.18,113.53,78.27,151.34a1120.87,1120.87,0,0,0,223.76,131c52.52,23.18,105.79,23.44,158.5.82A1132.58,1132.58,0,0,0,800.07,766.53c49.2-36,75-85.48,81.25-145.62,8.11-78.31,8.08-156.71,1.62-235.12-5.36-65.15-33.78-117.5-87.23-155.79A1270.74,1270.74,0,0,0,589.27,109.56c-58.88-27.28-118.35-28.08-176.54.28-47.65,23.23-94.34,48.6-140.39,74.9C245.57,200,220.14,218,195.47,236.57c-43.22,32.53-68.72,76.55-74.72,130.23C115.73,411.71,113.72,457,111,493.72Z" transform="translate(-45.05 0)" fill="#0048a5"/><path id="fill" d="M111,493.72c2.72-36.77,4.73-82,9.75-126.92,6-53.68,31.5-97.7,74.72-130.23,24.67-18.57,50.1-36.54,76.87-51.83,46.05-26.3,92.74-51.67,140.39-74.9,58.19-28.36,117.66-27.56,176.54-.28A1270.74,1270.74,0,0,1,795.71,230c53.45,38.29,81.87,90.64,87.23,155.79,6.46,78.41,6.49,156.81-1.62,235.12-6.22,60.14-32.05,109.64-81.25,145.62A1132.58,1132.58,0,0,1,577.43,893.71c-52.71,22.62-106,22.36-158.5-.82a1120.87,1120.87,0,0,1-223.76-131C145.08,724.07,121.41,672,116.9,610.54,114.26,574.52,113.19,538.38,111,493.72ZM686.19,782.93c3-1.46,4.81-2.09,6.35-3.14,63.58-43.38,106.15-98.47,106.31-180,.28-142.2-50.32-264.49-142.25-370.85-27-31.27-59.36-56.57-97.27-74.09-40.28-18.61-80.46-18.92-120.83-.19-31.75,14.73-58.89,35.8-83.71,60.1-58.3,57.09-95.78,127-124.27,202.36a476.3,476.3,0,0,0-30.89,182.83c.9,33.65,5.64,66,23.86,95.42,20.23,32.64,45.72,60,77.67,81.29,3.12,2.08,6.52,3.74,11.3,6.45-.29-5.39-.32-8.89-.69-12.36-7.5-71.35-6-142.42,6.31-213.18C331,483,357.46,413.87,401.92,352.21c14.18-19.66,30.63-37.2,51.3-50.36,30.65-19.51,61.38-19.58,91.73.23a177.67,177.67,0,0,1,25.12,20.08C592,343,608.55,368,623.21,394.25c55.26,99.08,70.37,206.71,67.28,318.1C689.84,735.4,687.72,758.41,686.19,782.93ZM578,499.11a77.56,77.56,0,0,0-77.89-77.46c-42.83,0-77.82,35.16-77.61,77.89a78.22,78.22,0,0,0,78.05,77.61C543.36,577.1,578.06,542.13,578,499.11Z" transform="translate(-45.05 0)" fill="#09e6ff"/><path id="arc" d="M686.19,782.93c1.53-24.52,3.65-47.53,4.3-70.58,3.09-111.39-12-219-67.28-318.1C608.55,368,592,343,570.07,322.16A177.67,177.67,0,0,0,545,302.08c-30.35-19.81-61.08-19.74-91.73-.23-20.67,13.16-37.12,30.7-51.3,50.36C357.46,413.87,331,483,318.08,557.53c-12.27,70.76-13.81,141.83-6.31,213.18.37,3.47.4,7,.69,12.36-4.78-2.71-8.18-4.37-11.3-6.45-32-21.3-57.44-48.65-77.67-81.29-18.22-29.4-23-61.77-23.86-95.42a476.3,476.3,0,0,1,30.89-182.83c28.49-75.36,66-145.27,124.27-202.36,24.82-24.3,52-45.37,83.71-60.1,40.37-18.73,80.55-18.42,120.83.19,37.91,17.52,70.25,42.82,97.27,74.09,91.93,106.36,142.53,228.65,142.25,370.85-.16,81.57-42.73,136.66-106.31,180C691,780.84,689.17,781.47,686.19,782.93Z" transform="translate(-45.05 0)" fill="#0048a5"/><path id="dot" d="M499,578a79,79,0,1,1,79-79A79,79,0,0,1,499,578Z" transform="translate(-45.05 0)" fill="#0048a5"/></svg>