{"accessors":[{"bufferView":0,"componentType":5121,"count":36,"max":[23],"min":[0],"type":"SCALAR"},{"bufferView":1,"componentType":5126,"count":24,"max":[1.0,0.5,0.866025447845459],"min":[-1.0,-0.5,-0.8660255074501038],"type":"VEC3"},{"bufferView":2,"componentType":5126,"count":24,"max":[0.866025447845459,0.0,1.0],"min":[-0.866025447845459,0.0,-1.0],"type":"VEC3"},{"bufferView":3,"componentType":5126,"count":24,"max":[1.0,0.5],"min":[-8.940696716308594e-08,0.0],"type":"VEC2"},{"bufferView":4,"componentType":5121,"count":60,"max":[35],"min":[0],"type":"SCALAR"},{"bufferView":5,"componentType":5126,"count":36,"max":[0.866025447845459,0.5,1.0],"min":[-0.866025447845459,-0.5,-1.0],"type":"VEC3"},{"bufferView":6,"componentType":5126,"count":36,"max":[1.0,1.0,0.866025447845459],"min":[-1.0,-1.0,-0.866025447845459],"type":"VEC3"},{"bufferView":7,"componentType":5126,"count":36,"max":[1.0,0.989999994635582],"min":[-8.940696716308594e-08,0.0],"type":"VEC2"},{"bufferView":8,"componentType":5121,"count":6,"max":[3],"min":[0],"type":"SCALAR"},{"bufferView":9,"componentType":5126,"count":4,"max":[0.03500000014901161,-1.100000023841858,0.03500000014901161],"min":[-0.03500000014901161,-1.100000023841858,-0.03500000014901161],"type":"VEC3"},{"bufferView":10,"componentType":5126,"count":4,"max":[0.0,-1.0,-0.0],"min":[0.0,-1.0,-0.0],"type":"VEC3"},{"bufferView":11,"componentType":5126,"count":4,"max":[1.0,1.0],"min":[0.0,0.0],"type":"VEC2"},{"bufferView":12,"componentType":5121,"count":6,"max":[3],"min":[0],"type":"SCALAR"},{"bufferView":13,"componentType":5126,"count":4,"max":[0.03500000014901161,-1.100000023841858,0.03500000014901161],"min":[-0.03500000014901161,-1.100000023841858,-0.03500000014901161],"type":"VEC3"},{"bufferView":14,"componentType":5126,"count":4,"max":[0.0,-1.0,-0.0],"min":[0.0,-1.0,-0.0],"type":"VEC3"},{"bufferView":15,"componentType":5126,"count":4,"max":[1.0,1.0],"min":[0.0,0.0],"type":"VEC2"},{"bufferView":16,"componentType":5121,"count":6,"max":[3],"min":[0],"type":"SCALAR"},{"bufferView":17,"componentType":5126,"count":4,"max":[0.03500000014901161,-1.100000023841858,0.03500000014901161],"min":[-0.03500000014901161,-1.100000023841858,-0.03500000014901161],"type":"VEC3"},{"bufferView":18,"componentType":5126,"count":4,"max":[0.0,-1.0,-0.0],"min":[0.0,-1.0,-0.0],"type":"VEC3"},{"bufferView":19,"componentType":5126,"count":4,"max":[1.0,1.0],"min":[0.0,0.0],"type":"VEC2"},{"bufferView":20,"componentType":5121,"count":6,"max":[3],"min":[0],"type":"SCALAR"},{"bufferView":21,"componentType":5126,"count":4,"max":[0.03500000014901161,-1.100000023841858,0.03500000014901161],"min":[-0.03500000014901161,-1.100000023841858,-0.03500000014901161],"type":"VEC3"},{"bufferView":22,"componentType":5126,"count":4,"max":[0.0,-1.0,-0.0],"min":[0.0,-1.0,-0.0],"type":"VEC3"},{"bufferView":23,"componentType":5126,"count":4,"max":[1.0,1.0],"min":[0.0,0.0],"type":"VEC2"},{"bufferView":24,"componentType":5121,"count":6,"max":[3],"min":[0],"type":"SCALAR"},{"bufferView":25,"componentType":5126,"count":4,"max":[0.5,0.4999999701976776,-0.8799999952316284],"min":[-0.5,-0.5000000596046448,-0.8799999952316284],"type":"VEC3"},{"bufferView":26,"componentType":5126,"count":4,"max":[0.0,-0.0,-1.0],"min":[0.0,-0.0,-1.0],"type":"VEC3"},{"bufferView":27,"componentType":5126,"count":4,"max":[1.0,1.0],"min":[0.0,0.0],"type":"VEC2"},{"bufferView":28,"componentType":5121,"count":6,"max":[3],"min":[0],"type":"SCALAR"},{"bufferView":29,"componentType":5126,"count":4,"max":[1.0121023654937744,0.5,-0.00698716240003705],"min":[0.5121023654937744,-0.5000001192092896,-0.8730127215385437],"type":"VEC3"},{"bufferView":30,"componentType":5126,"count":4,"max":[0.866025447845459,-7.450580596923828e-08,-0.5],"min":[0.866025447845459,-7.450580596923828e-08,-0.5],"type":"VEC3"},{"bufferView":31,"componentType":5126,"count":4,"max":[1.0,1.0],"min":[0.0,0.0],"type":"VEC2"},{"bufferView":32,"componentType":5121,"count":6,"max":[3],"min":[0],"type":"SCALAR"},{"bufferView":33,"componentType":5126,"count":4,"max":[1.0121023654937744,0.5000000596046448,0.8730127811431885],"min":[0.5121022462844849,-0.5,0.00698736310005188],"type":"VEC3"},{"bufferView":34,"componentType":5126,"count":4,"max":[0.8660253286361694,2.9802322387695312e-08,0.5000001192092896],"min":[0.8660253286361694,2.9802322387695312e-08,0.5000001192092896],"type":"VEC3"},{"bufferView":35,"componentType":5126,"count":4,"max":[1.0,1.0],"min":[0.0,0.0],"type":"VEC2"},{"bufferView":36,"componentType":5121,"count":6,"max":[3],"min":[0],"type":"SCALAR"},{"bufferView":37,"componentType":5126,"count":4,"max":[0.4999999701976776,0.5000005960464478,0.8800003528594971],"min":[-0.5000004172325134,-0.4999997615814209,0.8799996376037598],"type":"VEC3"},{"bufferView":38,"componentType":5126,"count":4,"max":[-2.3841842278216063e-07,4.768372150465439e-07,1.0],"min":[-2.3841842278216063e-07,4.768372150465439e-07,1.0],"type":"VEC3"},{"bufferView":39,"componentType":5126,"count":4,"max":[1.0,1.0],"min":[0.0,0.0],"type":"VEC2"},{"bufferView":40,"componentType":5121,"count":6,"max":[3],"min":[0],"type":"SCALAR"},{"bufferView":41,"componentType":5126,"count":4,"max":[-0.5121022462844849,0.5000003576278687,0.8730126619338989],"min":[-1.012102484703064,-0.49999988079071045,0.006987145636230707],"type":"VEC3"},{"bufferView":42,"componentType":5126,"count":4,"max":[-0.866025447845459,2.2351741790771484e-07,0.4999999403953552],"min":[-0.866025447845459,2.2351741790771484e-07,0.4999999403953552],"type":"VEC3"},{"bufferView":43,"componentType":5126,"count":4,"max":[1.0,1.0],"min":[0.0,0.0],"type":"VEC2"},{"bufferView":44,"componentType":5121,"count":6,"max":[3],"min":[0],"type":"SCALAR"},{"bufferView":45,"componentType":5126,"count":4,"max":[-0.5121024250984192,0.49999985098838806,-0.006987065076828003],"min":[-1.0121023654937744,-0.5000001788139343,-0.8730127215385437],"type":"VEC3"},{"bufferView":46,"componentType":5126,"count":4,"max":[-0.8660255670547485,-1.6391277313232422e-07,-0.4999998211860657],"min":[-0.8660255670547485,-1.6391277313232422e-07,-0.4999998211860657],"type":"VEC3"},{"bufferView":47,"componentType":5126,"count":4,"max":[1.0,1.0],"min":[0.0,0.0],"type":"VEC2"}],"asset":{"generator":"Soft8Soft Verge3D for Blender add-on","version":"2.0"},"bufferViews":[{"buffer":0,"byteLength":36,"byteOffset":0,"target":34963},{"buffer":0,"byteLength":288,"byteOffset":36,"target":34962},{"buffer":0,"byteLength":288,"byteOffset":324,"target":34962},{"buffer":0,"byteLength":192,"byteOffset":612,"target":34962},{"buffer":0,"byteLength":60,"byteOffset":804,"target":34963},{"buffer":0,"byteLength":432,"byteOffset":864,"target":34962},{"buffer":0,"byteLength":432,"byteOffset":1296,"target":34962},{"buffer":0,"byteLength":288,"byteOffset":1728,"target":34962},{"buffer":0,"byteLength":6,"byteOffset":2016,"target":34963},{"buffer":0,"byteLength":48,"byteOffset":2024,"target":34962},{"buffer":0,"byteLength":48,"byteOffset":2072,"target":34962},{"buffer":0,"byteLength":32,"byteOffset":2120,"target":34962},{"buffer":0,"byteLength":6,"byteOffset":2152,"target":34963},{"buffer":0,"byteLength":48,"byteOffset":2160,"target":34962},{"buffer":0,"byteLength":48,"byteOffset":2208,"target":34962},{"buffer":0,"byteLength":32,"byteOffset":2256,"target":34962},{"buffer":0,"byteLength":6,"byteOffset":2288,"target":34963},{"buffer":0,"byteLength":48,"byteOffset":2296,"target":34962},{"buffer":0,"byteLength":48,"byteOffset":2344,"target":34962},{"buffer":0,"byteLength":32,"byteOffset":2392,"target":34962},{"buffer":0,"byteLength":6,"byteOffset":2424,"target":34963},{"buffer":0,"byteLength":48,"byteOffset":2432,"target":34962},{"buffer":0,"byteLength":48,"byteOffset":2480,"target":34962},{"buffer":0,"byteLength":32,"byteOffset":2528,"target":34962},{"buffer":0,"byteLength":6,"byteOffset":2560,"target":34963},{"buffer":0,"byteLength":48,"byteOffset":2568,"target":34962},{"buffer":0,"byteLength":48,"byteOffset":2616,"target":34962},{"buffer":0,"byteLength":32,"byteOffset":2664,"target":34962},{"buffer":0,"byteLength":6,"byteOffset":2696,"target":34963},{"buffer":0,"byteLength":48,"byteOffset":2704,"target":34962},{"buffer":0,"byteLength":48,"byteOffset":2752,"target":34962},{"buffer":0,"byteLength":32,"byteOffset":2800,"target":34962},{"buffer":0,"byteLength":6,"byteOffset":2832,"target":34963},{"buffer":0,"byteLength":48,"byteOffset":2840,"target":34962},{"buffer":0,"byteLength":48,"byteOffset":2888,"target":34962},{"buffer":0,"byteLength":32,"byteOffset":2936,"target":34962},{"buffer":0,"byteLength":6,"byteOffset":2968,"target":34963},{"buffer":0,"byteLength":48,"byteOffset":2976,"target":34962},{"buffer":0,"byteLength":48,"byteOffset":3024,"target":34962},{"buffer":0,"byteLength":32,"byteOffset":3072,"target":34962},{"buffer":0,"byteLength":6,"byteOffset":3104,"target":34963},{"buffer":0,"byteLength":48,"byteOffset":3112,"target":34962},{"buffer":0,"byteLength":48,"byteOffset":3160,"target":34962},{"buffer":0,"byteLength":32,"byteOffset":3208,"target":34962},{"buffer":0,"byteLength":6,"byteOffset":3240,"target":34963},{"buffer":0,"byteLength":48,"byteOffset":3248,"target":34962},{"buffer":0,"byteLength":48,"byteOffset":3296,"target":34962},{"buffer":0,"byteLength":32,"byteOffset":3344,"target":34962}],"buffers":[{"byteLength":3376,"uri":"GLIFTEK_Plugins_Lottie.bin"}],"cameras":[{"extensions":{"S8S_v3d_camera_data":{"controls":"NONE","enablePan":true,"moveSpeed":1.0,"rotateSpeed":1.0,"viewportFitInitialAspect":1.7777777777777777,"viewportFitType":"AUTO"}},"name":"Camera","perspective":{"aspectRatio":1.7777777777777777,"yfov":0.5033799372418416,"zfar":100.0,"znear":0.10000000149011612},"type":"perspective"}],"extensions":{"S8S_v3d_data":{"lights":[{"color":[1.0,1.0,1.0],"decay":2,"distance":10.00000011175871,"intensity":100.0,"name":"Lamp","profile":"blender","shadow":{"bias":-0.0018,"cameraFar":10.00000011175871,"cameraFov":0,"cameraNear":1.0007989406585693,"enabled":true,"expBias":2.5,"mapSize":512,"radius":1.0,"slopeScaledBias":2.5},"type":"point"}]}},"extensionsUsed":["S8S_v3d_texture_data","S8S_v3d_material_data","S8S_v3d_camera_data","S8S_v3d_data","S8S_v3d_mesh_data","S8S_v3d_node_data","S8S_v3d_scene_data"],"images":[{"uri":"environment.hdr"}],"materials":[{"alphaMode":"BLEND","doubleSided":true,"extensions":{"S8S_v3d_material_data":{"blendMode":{"blendEquation":32774,"dstRGB":771,"srcRGB":1},"depthWrite":false,"gtaoVisible":false,"materialIndex":0,"nodeGraph":{"edges":[{"fromNode":1,"fromOutput":0,"toInput":0,"toNode":0},{"fromNode":2,"fromOutput":0,"toInput":2,"toNode":1},{"fromNode":3,"fromOutput":0,"toInput":1,"toNode":1},{"fromNode":4,"fromOutput":0,"toInput":0,"toNode":1}],"nodes":[{"inputs":[[0,0,0,0],[0,0,0,0],[0.0,0.0,0.0]],"is_active_output":true,"name":"Material Output","outputs":[],"type":"OUTPUT_MATERIAL_BL"},{"inputs":[0.30000001192092896,[0,0,0,0],[0,0,0,0]],"is_active_output":false,"name":"Mix Shader","outputs":[[0,0,0,0]],"type":"MIX_SHADER_BL"},{"inputs":[[0.01599629409611225,0.29613831639289856,0.4620770215988159,1.0],1.0],"is_active_output":false,"name":"Emission","outputs":[[0,0,0,0]],"type":"EMISSION_BL"},{"inputs":[[1.0,1.0,1.0,1.0]],"is_active_output":false,"name":"Transparent BSDF.001","outputs":[[0,0,0,0]],"type":"BSDF_TRANSPARENT_BL"},{"inputs":[],"is_active_output":false,"name":"Opacity","outputs":[0.25],"type":"VALUE_BL"}]},"renderSide":"DOUBLE","useCastShadows":false}},"name":"Carousel_Transparent_Material"},{"extensions":{"S8S_v3d_material_data":{"gtaoVisible":true,"materialIndex":0,"nodeGraph":{"edges":[{"fromNode":0,"fromOutput":0,"toInput":0,"toNode":1},{"fromNode":4,"fromOutput":0,"toInput":1,"toNode":2},{"fromNode":3,"fromOutput":0,"toInput":0,"toNode":2},{"fromNode":2,"fromOutput":0,"toInput":0,"toNode":0}],"nodes":[{"inputs":[[0.05087608844041824,0.05087608844041824,0.05087608844041824,1.0],1.0],"is_active_output":false,"name":"Background","outputs":[[0,0,0,0]],"type":"BACKGROUND_BL"},{"inputs":[[0,0,0,0],[0,0,0,0]],"is_active_output":true,"name":"World Output","outputs":[],"type":"OUTPUT_WORLD_BL"},{"blendType":"MIX","inputs":[0.5,[0.5,0.5,0.5,1.0],[0.0,0.0,0.0,1.0]],"is_active_output":false,"name":"Mix","outputs":[[0.0,0.0,0.0,0.0]],"type":"MIX_RGB_BL","useClamp":false},{"inputs":[],"is_active_output":false,"name":"Light Path","outputs":[0.0,0.0,0.0,0.0,0.0,0.0,0.0,0.0,0.0,0.0,0.0,0.0,0.0],"type":"LIGHT_PATH_BL"},{"inputs":[[0.0,0.0,0.0]],"is_active_output":false,"name":"Environment Texture","outputs":[[0.0,0.0,0.0,0.0]],"projection":"EQUIRECTANGULAR","texture":0,"type":"TEX_ENVIRONMENT_BL"}]},"useCastShadows":true}},"name":"Verge3D_Environment_World"},{"emissiveFactor":[0.0,0.0,0.0],"extensions":{"S8S_v3d_material_data":{"nodeGraph":{"edges":[{"fromNode":1,"fromOutput":0,"toInput":0,"toNode":0}],"nodes":[{"inputs":[[0,0,0,0],[0,0,0,0],0.0],"is_active_output":true,"name":"Material Output","outputs":[],"type":"OUTPUT_MATERIAL_BL"},{"inputs":[[0.800000011920929,0.800000011920929,0.800000011920929,1.0],0.0,[0.0,0.0,0.0]],"is_active_output":false,"name":"Diffuse BSDF","outputs":[[0,0,0,0]],"type":"BSDF_DIFFUSE_BL"}]},"useCastShadows":true,"useShadows":true}},"name":"v3d_default_material"}],"meshes":[{"extensions":{"S8S_v3d_mesh_data":{"colorLayers":{},"uvLayers":{}}},"name":"Cylinder","primitives":[{"attributes":{"NORMAL":2,"POSITION":1,"TEXCOORD_0":3},"indices":0,"material":2,"mode":4}]},{"extensions":{"S8S_v3d_mesh_data":{"colorLayers":{},"uvLayers":{"UVMap":"TEXCOORD_0"}}},"name":"Cylinder.009","primitives":[{"attributes":{"NORMAL":6,"POSITION":5,"TEXCOORD_0":7},"indices":4,"material":0,"mode":4}]},{"extensions":{"S8S_v3d_mesh_data":{"colorLayers":{},"uvLayers":{}}},"name":"Plane.007","primitives":[{"attributes":{"NORMAL":10,"POSITION":9,"TEXCOORD_0":11},"indices":8,"material":2,"mode":4}]},{"extensions":{"S8S_v3d_mesh_data":{"colorLayers":{},"uvLayers":{}}},"name":"Plane.008","primitives":[{"attributes":{"NORMAL":14,"POSITION":13,"TEXCOORD_0":15},"indices":12,"material":2,"mode":4}]},{"extensions":{"S8S_v3d_mesh_data":{"colorLayers":{},"uvLayers":{}}},"name":"Plane.012","primitives":[{"attributes":{"NORMAL":18,"POSITION":17,"TEXCOORD_0":19},"indices":16,"material":2,"mode":4}]},{"extensions":{"S8S_v3d_mesh_data":{"colorLayers":{},"uvLayers":{}}},"name":"Plane.013","primitives":[{"attributes":{"NORMAL":22,"POSITION":21,"TEXCOORD_0":23},"indices":20,"material":2,"mode":4}]},{"extensions":{"S8S_v3d_mesh_data":{"colorLayers":{},"uvLayers":{}}},"name":"Plane.016","primitives":[{"attributes":{"NORMAL":26,"POSITION":25,"TEXCOORD_0":27},"indices":24,"material":2,"mode":4}]},{"extensions":{"S8S_v3d_mesh_data":{"colorLayers":{},"uvLayers":{}}},"name":"Plane.017","primitives":[{"attributes":{"NORMAL":30,"POSITION":29,"TEXCOORD_0":31},"indices":28,"material":2,"mode":4}]},{"extensions":{"S8S_v3d_mesh_data":{"colorLayers":{},"uvLayers":{}}},"name":"Plane.018","primitives":[{"attributes":{"NORMAL":34,"POSITION":33,"TEXCOORD_0":35},"indices":32,"material":2,"mode":4}]},{"extensions":{"S8S_v3d_mesh_data":{"colorLayers":{},"uvLayers":{}}},"name":"Plane.019","primitives":[{"attributes":{"NORMAL":38,"POSITION":37,"TEXCOORD_0":39},"indices":36,"material":2,"mode":4}]},{"extensions":{"S8S_v3d_mesh_data":{"colorLayers":{},"uvLayers":{}}},"name":"Plane.020","primitives":[{"attributes":{"NORMAL":42,"POSITION":41,"TEXCOORD_0":43},"indices":40,"material":2,"mode":4}]},{"extensions":{"S8S_v3d_mesh_data":{"colorLayers":{},"uvLayers":{}}},"name":"Plane.021","primitives":[{"attributes":{"NORMAL":46,"POSITION":45,"TEXCOORD_0":47},"indices":44,"material":2,"mode":4}]}],"nodes":[{"extensions":{"S8S_v3d_node_data":{"frustumCulling":true,"groupNames":["Collection 1"],"hidden":false,"hidpiCompositing":false,"objectColor":[1.0,1.0,1.0],"objectIndex":0,"renderOrder":0,"useShadows":true}},"mesh":2,"name":"button_play","rotation":[0.7071068286895752,0.0,0.0,0.7071068286895752],"scale":[2.5,1.0,2.0],"translation":[-0.07999999821186066,-0.20000000298023224,0.010000006295740604]},{"extensions":{"S8S_v3d_node_data":{"frustumCulling":true,"groupNames":["Collection 1"],"hidden":false,"hidpiCompositing":false,"light":0,"objectColor":[0.0,0.0,0.0],"objectIndex":0,"renderOrder":0}},"name":"Lamp","rotation":[-0.2841663062572479,0.7269423604011536,0.34203389286994934,0.5232754945755005],"scale":[0.9999999403953552,0.9999997615814209,0.9999998807907104],"translation":[4.076245307922363,5.903861999511719,-1.0054539442062378]},{"extensions":{"S8S_v3d_node_data":{"frustumCulling":true,"groupNames":["Collection 1"],"hidden":false,"hidpiCompositing":false,"objectColor":[1.0,1.0,1.0],"objectIndex":0,"renderOrder":0,"useShadows":true}},"mesh":5,"name":"button_scroll_RIGHT","rotation":[0.7071068286895752,0.0,0.0,0.7071068286895752],"scale":[1.5,1.0,5.0],"translation":[0.35999998450279236,3.42285422227917e-10,0.009999999776482582]},{"extensions":{"S8S_v3d_node_data":{"frustumCulling":true,"groupNames":["Collection 1"],"hidden":false,"hidpiCompositing":false,"objectColor":[1.0,1.0,1.0],"objectIndex":0,"renderOrder":0,"useShadows":true}},"mesh":6,"name":"Carousel_Side.000","rotation":[-9.463795080932869e-09,1.0,-5.4639253121990805e-09,-7.549790126404332e-08],"translation":[0.0,1.0,-0.0]},{"children":[3],"name":"v3d_Proxy_Node_0_Carousel_Side.000","scale":[1.0,1.0,1.0000001192092896],"translation":[-0.0,-1.0,-0.0]},{"extensions":{"S8S_v3d_node_data":{"frustumCulling":true,"groupNames":["Collection 1"],"hidden":false,"hidpiCompositing":false,"objectColor":[1.0,1.0,1.0],"objectIndex":0,"renderOrder":0,"useShadows":true}},"mesh":11,"name":"Carousel_Side.005","rotation":[-9.463795080932869e-09,1.0,-5.4639253121990805e-09,-7.549790126404332e-08],"translation":[0.0,1.0,-0.0]},{"children":[5],"name":"v3d_Proxy_Node_0_Carousel_Side.005","scale":[1.0,1.0,1.0000001192092896],"translation":[-0.0,-1.0,-0.0]},{"children":[4,12,10,19,17,6,14],"extensions":{"S8S_v3d_node_data":{"frustumCulling":true,"groupNames":["Collection 1"],"hidden":false,"hidpiCompositing":false,"objectColor":[1.0,1.0,1.0],"objectIndex":0,"renderOrder":0,"useShadows":true}},"mesh":0,"name":"Carousel_Grid","scale":[1.0,1.0,0.9999999403953552],"translation":[0.0,1.0,-0.0]},{"extensions":{"S8S_v3d_node_data":{"frustumCulling":true,"groupNames":["Collection 1"],"hidden":false,"hidpiCompositing":false,"objectColor":[1.0,1.0,1.0],"objectIndex":0,"renderOrder":0,"useShadows":true}},"mesh":4,"name":"button_scroll_LEFT","rotation":[3.090862321641907e-08,0.7071068286895752,0.7071068286895752,3.090862676913275e-08],"scale":[1.5,1.0,5.0],"translation":[-0.35999998450279236,3.42285422227917e-10,0.009999999776482582]},{"extensions":{"S8S_v3d_node_data":{"frustumCulling":true,"groupNames":["Collection 1"],"hidden":false,"hidpiCompositing":false,"objectColor":[1.0,1.0,1.0],"objectIndex":0,"renderOrder":0,"useShadows":true}},"mesh":8,"name":"Carousel_Side.002","rotation":[-9.463795080932869e-09,1.0,-5.4639253121990805e-09,-7.549790126404332e-08],"translation":[0.0,1.0,-0.0]},{"children":[9],"name":"v3d_Proxy_Node_0_Carousel_Side.002","scale":[1.0,1.0,1.0000001192092896],"translation":[-0.0,-1.0,-0.0]},{"extensions":{"S8S_v3d_node_data":{"frustumCulling":true,"groupNames":["Collection 1"],"hidden":false,"hidpiCompositing":false,"objectColor":[1.0,1.0,1.0],"objectIndex":0,"renderOrder":0,"useShadows":true}},"mesh":7,"name":"Carousel_Side.001","rotation":[-9.463795080932869e-09,1.0,-5.4639253121990805e-09,-7.549790126404332e-08],"translation":[0.0,1.0,-0.0]},{"children":[11],"name":"v3d_Proxy_Node_0_Carousel_Side.001","scale":[1.0,1.0,1.0000001192092896],"translation":[-0.0,-1.0,-0.0]},{"extensions":{"S8S_v3d_node_data":{"frustumCulling":true,"groupNames":["Collection 1"],"hidden":false,"hidpiCompositing":false,"objectColor":[1.0,1.0,1.0],"objectIndex":0,"renderOrder":0,"useShadows":true}},"mesh":1,"name":"Carousel_Transparent","rotation":[-0.2588190734386444,2.7275592628939194e-07,-0.9659258127212524,-7.212751995666622e-08],"scale":[0.9999998807907104,1.0,0.9999998211860657],"translation":[7.897614864305069e-07,1.0,-9.536744300930877e-07]},{"children":[13],"name":"v3d_Proxy_Node_0_Carousel_Transparent","scale":[1.0,1.0,1.0000001192092896],"translation":[-0.0,-1.0,-0.0]},{"extensions":{"S8S_v3d_node_data":{"frustumCulling":true,"groupNames":["Collection 1"],"hidden":false,"hidpiCompositing":false,"objectColor":[1.0,1.0,1.0],"objectIndex":0,"renderOrder":0,"useShadows":true}},"mesh":3,"name":"button_pause","rotation":[0.7071068286895752,0.0,0.0,0.7071068286895752],"scale":[2.5,1.0,2.0],"translation":[0.07999999821186066,-0.20000000298023224,0.010000006295740604]},{"extensions":{"S8S_v3d_node_data":{"frustumCulling":true,"groupNames":["Collection 1"],"hidden":false,"hidpiCompositing":false,"objectColor":[1.0,1.0,1.0],"objectIndex":0,"renderOrder":0,"useShadows":true}},"mesh":10,"name":"Carousel_Side.004","rotation":[-9.463795080932869e-09,1.0,-5.4639253121990805e-09,-7.549790126404332e-08],"translation":[0.0,1.0,-0.0]},{"children":[16],"name":"v3d_Proxy_Node_0_Carousel_Side.004","scale":[1.0,1.0,1.0000001192092896],"translation":[-0.0,-1.0,-0.0]},{"extensions":{"S8S_v3d_node_data":{"frustumCulling":true,"groupNames":["Collection 1"],"hidden":false,"hidpiCompositing":false,"objectColor":[1.0,1.0,1.0],"objectIndex":0,"renderOrder":0,"useShadows":true}},"mesh":9,"name":"Carousel_Side.003","rotation":[-9.463795080932869e-09,1.0,-5.4639253121990805e-09,-7.549790126404332e-08],"translation":[0.0,1.0,-0.0]},{"children":[18],"name":"v3d_Proxy_Node_0_Carousel_Side.003","scale":[1.0,1.0,1.0000001192092896],"translation":[-0.0,-1.0,-0.0]},{"children":[21],"extensions":{"S8S_v3d_node_data":{"frustumCulling":true,"groupNames":["Collection 1"],"hidden":true,"hidpiCompositing":false,"objectColor":[1.0,1.0,1.0],"objectIndex":0,"renderOrder":0}},"name":"Scene_EMPTY_000"},{"camera":0,"children":[15,0,8,2],"extensions":{"S8S_v3d_node_data":{"frustumCulling":true,"groupNames":["Collection 1"],"hidden":false,"hidpiCompositing":false,"objectColor":[0.0,0.0,0.0],"objectIndex":0,"renderOrder":0}},"name":"Camera","rotation":[8.429369557916289e-08,0.0,0.0,1.0],"scale":[1.0,1.0,1.0],"translation":[0.0,0.9299999475479126,4.179999828338623]}],"samplers":[{}],"scene":0,"scenes":[{"extensions":{"S8S_v3d_scene_data":{"aaMethod":"AUTO","iblEnvironmentMode":"PMREM","physicallyCorrectLights":true,"pmremMaxTileSize":256,"shadowMap":{"esmDistanceScale":1.0,"renderReverseSided":false,"renderSingleSided":true,"type":"PCFPOISSON"},"worldMaterial":1}},"extras":{"animFrameRate":24,"coordSystem":"Z_UP_RIGHT"},"name":"Scene","nodes":[1,7,20]}],"textures":[{"extensions":{"S8S_v3d_texture_data":{"colorSpace":"linear"}},"name":"environment.hdr.001","sampler":0,"source":0}]}
