{"accessors":[{"bufferView":0,"componentType":5121,"count":186,"max":[127],"min":[0],"type":"SCALAR"},{"bufferView":1,"componentType":5126,"count":128,"max":[1.0,1.0,1.0],"min":[-1.0,-1.0,-1.0],"type":"VEC3"},{"bufferView":2,"componentType":5126,"count":128,"max":[0.8909767270088196,0.44548842310905457,0.8909767270088196],"min":[-0.8909767270088196,-0.9999999403953552,-0.8909767270088196],"type":"VEC3"},{"bufferView":3,"componentType":5126,"count":128,"max":[0.9900000095367432,0.989999994635582],"min":[0.01000000536441803,0.5099999904632568],"type":"VEC2"},{"bufferView":4,"componentType":5121,"count":36,"max":[23],"min":[0],"type":"SCALAR"},{"bufferView":5,"componentType":5126,"count":24,"max":[1.0,1.0,1.0],"min":[-1.0,-1.0,-1.0],"type":"VEC3"},{"bufferView":6,"componentType":5126,"count":24,"max":[1.0,1.0,1.0],"min":[-1.0,-1.0,-1.0],"type":"VEC3"},{"bufferView":7,"componentType":5126,"count":24,"max":[0.875,1.0],"min":[0.125,0.0],"type":"VEC2"},{"bufferView":8,"componentType":5121,"count":6,"max":[3],"min":[0],"type":"SCALAR"},{"bufferView":9,"componentType":5126,"count":4,"max":[1.0,0.0,1.0],"min":[-1.0,0.0,-1.0],"type":"VEC3"},{"bufferView":10,"componentType":5126,"count":4,"max":[0.0,1.0,-0.0],"min":[0.0,1.0,-0.0],"type":"VEC3"},{"bufferView":11,"componentType":5126,"count":4,"max":[0.9998999238014221,0.9999000200041337],"min":[9.997999586630613e-05,9.995698928833008e-05],"type":"VEC2"},{"bufferView":12,"componentType":5121,"count":6,"max":[3],"min":[0],"type":"SCALAR"},{"bufferView":13,"componentType":5126,"count":4,"max":[5.0,0.0,0.5],"min":[-5.0,0.0,-0.5],"type":"VEC3"},{"bufferView":14,"componentType":5126,"count":4,"max":[0.0,1.0,-0.0],"min":[0.0,1.0,-0.0],"type":"VEC3"},{"bufferView":15,"componentType":5126,"count":4,"max":[1.0,1.0],"min":[0.0,0.0],"type":"VEC2"},{"bufferView":16,"componentType":5121,"count":6,"max":[3],"min":[0],"type":"SCALAR"},{"bufferView":17,"componentType":5126,"count":4,"max":[5.0,0.0,0.5],"min":[-5.0,0.0,-0.5],"type":"VEC3"},{"bufferView":18,"componentType":5126,"count":4,"max":[0.0,1.0,-0.0],"min":[0.0,1.0,-0.0],"type":"VEC3"},{"bufferView":19,"componentType":5126,"count":4,"max":[1.0,1.0],"min":[0.0,0.0],"type":"VEC2"},{"bufferView":20,"componentType":5121,"count":6,"max":[3],"min":[0],"type":"SCALAR"},{"bufferView":21,"componentType":5126,"count":4,"max":[5.0,0.0,0.5],"min":[-5.0,0.0,-0.5],"type":"VEC3"},{"bufferView":22,"componentType":5126,"count":4,"max":[0.0,1.0,-0.0],"min":[0.0,1.0,-0.0],"type":"VEC3"},{"bufferView":23,"componentType":5126,"count":4,"max":[1.0,1.0],"min":[0.0,0.0],"type":"VEC2"},{"bufferView":24,"componentType":5123,"count":3456,"max":[624],"min":[0],"type":"SCALAR"},{"bufferView":25,"componentType":5126,"count":625,"max":[1.5,0.5,1.4999998807907104],"min":[-1.5,-0.5,-1.5000001192092896],"type":"VEC3"},{"bufferView":26,"componentType":5126,"count":625,"max":[1.0,0.99993896484375,1.0],"min":[-1.0,-0.99993896484375,-1.0],"type":"VEC3"},{"bufferView":27,"componentType":5126,"count":625,"max":[1.0,1.0000000000000004],"min":[-4.440892098500626e-16,0.0],"type":"VEC2"}],"asset":{"generator":"Soft8Soft Verge3D for Blender add-on","version":"2.0"},"bufferViews":[{"buffer":0,"byteLength":186,"byteOffset":0,"target":34963},{"buffer":0,"byteLength":1536,"byteOffset":188,"target":34962},{"buffer":0,"byteLength":1536,"byteOffset":1724,"target":34962},{"buffer":0,"byteLength":1024,"byteOffset":3260,"target":34962},{"buffer":0,"byteLength":36,"byteOffset":4284,"target":34963},{"buffer":0,"byteLength":288,"byteOffset":4320,"target":34962},{"buffer":0,"byteLength":288,"byteOffset":4608,"target":34962},{"buffer":0,"byteLength":192,"byteOffset":4896,"target":34962},{"buffer":0,"byteLength":6,"byteOffset":5088,"target":34963},{"buffer":0,"byteLength":48,"byteOffset":5096,"target":34962},{"buffer":0,"byteLength":48,"byteOffset":5144,"target":34962},{"buffer":0,"byteLength":32,"byteOffset":5192,"target":34962},{"buffer":0,"byteLength":6,"byteOffset":5224,"target":34963},{"buffer":0,"byteLength":48,"byteOffset":5232,"target":34962},{"buffer":0,"byteLength":48,"byteOffset":5280,"target":34962},{"buffer":0,"byteLength":32,"byteOffset":5328,"target":34962},{"buffer":0,"byteLength":6,"byteOffset":5360,"target":34963},{"buffer":0,"byteLength":48,"byteOffset":5368,"target":34962},{"buffer":0,"byteLength":48,"byteOffset":5416,"target":34962},{"buffer":0,"byteLength":32,"byteOffset":5464,"target":34962},{"buffer":0,"byteLength":6,"byteOffset":5496,"target":34963},{"buffer":0,"byteLength":48,"byteOffset":5504,"target":34962},{"buffer":0,"byteLength":48,"byteOffset":5552,"target":34962},{"buffer":0,"byteLength":32,"byteOffset":5600,"target":34962},{"buffer":0,"byteLength":6912,"byteOffset":5632,"target":34963},{"buffer":0,"byteLength":7500,"byteOffset":12544,"target":34962},{"buffer":0,"byteLength":7500,"byteOffset":20044,"target":34962},{"buffer":0,"byteLength":5000,"byteOffset":27544,"target":34962}],"buffers":[{"byteLength":32544,"uri":"GLIFTEK_Plugins_Web_Storage.bin"}],"cameras":[{"extensions":{"S8S_v3d_camera_data":{"controls":"NONE","enablePan":true,"moveSpeed":1.0,"rotateSpeed":1.0,"viewportFitInitialAspect":1.7777777777777777,"viewportFitType":"AUTO"}},"name":"Camera","perspective":{"aspectRatio":1.7777777777777777,"yfov":0.39959652046304894,"zfar":10000000.0,"znear":0.0010000000474974513},"type":"perspective"}],"extensions":{"S8S_v3d_data":{"curves":[{"alignX":"left","alignY":"topBaseline","bevelSegments":5,"bevelSize":0.0,"bevelThickness":0.0,"curveSegments":11,"font":0,"height":0.0,"lineHeight":1.0,"material":4,"name":"LOAD KEY","scaledEmSize":true,"size":1.0,"text":"LOAD KEY","type":"font"},{"alignX":"left","alignY":"topBaseline","bevelSegments":5,"bevelSize":0.0,"bevelThickness":0.0,"curveSegments":11,"font":0,"height":0.0,"lineHeight":1.0,"material":6,"name":"LOAD KEY.001","scaledEmSize":true,"size":1.0,"text":"SAVE KEY","type":"font"},{"alignX":"left","alignY":"topBaseline","bevelSegments":5,"bevelSize":0.0,"bevelThickness":0.0,"curveSegments":11,"font":0,"height":0.0,"lineHeight":1.0,"material":5,"name":"LOAD KEY.002","scaledEmSize":true,"size":1.0,"text":"RESET SCENE","type":"font"}],"fonts":[{"name":"VenusRising","uri":"VENUSRIS.ttf"}]}},"extensionsUsed":["S8S_v3d_texture_data","S8S_v3d_material_data","S8S_v3d_data","S8S_v3d_camera_data","S8S_v3d_mesh_data","S8S_v3d_node_data","S8S_v3d_scene_data"],"images":[{"uri":"checkerboard.jpg"},{"uri":"environment.hdr"}],"materials":[{"extensions":{"S8S_v3d_material_data":{"materialIndex":0,"nodeGraph":{"edges":[{"fromNode":0,"fromOutput":0,"toInput":0,"toNode":4},{"fromNode":1,"fromOutput":0,"toInput":0,"toNode":0},{"fromNode":3,"fromOutput":0,"toInput":0,"toNode":2},{"fromNode":4,"fromOutput":0,"toInput":0,"toNode":3}],"nodes":[{"inputs":[[0.0,0.0,0.0],[0.0,0.0,0.0],[0.0,0.0,0.0],[0.5,0.5,1.0]],"is_active_output":false,"name":"Mapping","outputs":[[0.0,0.0,0.0]],"type":"MAPPING_BL","vectorType":"TEXTURE"},{"inputs":[],"is_active_output":false,"name":"UV Map","outputs":[[0.0,0.0,0.0]],"type":"UVMAP_BL","uvLayer":"UVMap"},{"inputs":[[0,0,0,0],[0,0,0,0],[0.0,0.0,0.0]],"is_active_output":true,"name":"Material Output","outputs":[],"type":"OUTPUT_MATERIAL_BL"},{"inputs":[[1.0,1.0,1.0,1.0],1.0],"is_active_output":false,"name":"Emission","outputs":[[0,0,0,0]],"type":"EMISSION_BL"},{"inputs":[[0.0,0.0,0.0]],"is_active_output":false,"name":"Image Texture","outputs":[[0.0,0.0,0.0,0.0],0.0],"projection":"FLAT","projectionBlend":0.0,"texture":0,"type":"TEX_IMAGE_BL"}]},"useCastShadows":true}},"name":"Checkerboard_Material"},{"extensions":{"S8S_v3d_material_data":{"materialIndex":0,"nodeGraph":{"edges":[{"fromNode":1,"fromOutput":0,"toInput":0,"toNode":0},{"fromNode":2,"fromOutput":0,"toInput":0,"toNode":1}],"nodes":[{"inputs":[[0,0,0,0],[0,0,0,0],[0.0,0.0,0.0]],"is_active_output":true,"name":"Material Output","outputs":[],"type":"OUTPUT_MATERIAL_BL"},{"inputs":[[1.0,1.0,1.0,1.0],1.0],"is_active_output":false,"name":"Emission","outputs":[[0,0,0,0]],"type":"EMISSION_BL"},{"inputs":[],"is_active_output":false,"name":"Color","outputs":[[0.0,0.5,0.0,1.0]],"type":"RGB_BL"}]},"useCastShadows":true}},"name":"Cone_Emissive"},{"extensions":{"S8S_v3d_material_data":{"materialIndex":0,"nodeGraph":{"edges":[{"fromNode":1,"fromOutput":0,"toInput":0,"toNode":0},{"fromNode":2,"fromOutput":0,"toInput":0,"toNode":1}],"nodes":[{"inputs":[[0,0,0,0],[0,0,0,0],[0.0,0.0,0.0]],"is_active_output":true,"name":"Material Output","outputs":[],"type":"OUTPUT_MATERIAL_BL"},{"inputs":[[1.0,1.0,1.0,1.0],1.0],"is_active_output":false,"name":"Emission","outputs":[[0,0,0,0]],"type":"EMISSION_BL"},{"inputs":[],"is_active_output":false,"name":"Color","outputs":[[0.5,0.0,0.0,1.0]],"type":"RGB_BL"}]},"useCastShadows":true}},"name":"Cube_Emissive"},{"alphaMode":"BLEND","doubleSided":true,"extensions":{"S8S_v3d_material_data":{"blendMode":{"blendEquation":32774,"dstRGB":771,"srcRGB":1},"depthWrite":false,"materialIndex":0,"nodeGraph":{"edges":[{"fromNode":1,"fromOutput":0,"toInput":0,"toNode":0}],"nodes":[{"inputs":[[0,0,0,0],[0,0,0,0],[0.0,0.0,0.0]],"is_active_output":true,"name":"Material Output","outputs":[],"type":"OUTPUT_MATERIAL_BL"},{"inputs":[[1.0,1.0,1.0,1.0]],"is_active_output":false,"name":"Transparent BSDF","outputs":[[0,0,0,0]],"type":"BSDF_TRANSPARENT_BL"}]},"renderSide":"DOUBLE","useCastShadows":true}},"name":"HITBOX"},{"extensions":{"S8S_v3d_material_data":{"materialIndex":0,"nodeGraph":{"edges":[{"fromNode":1,"fromOutput":0,"toInput":0,"toNode":0},{"fromNode":2,"fromOutput":0,"toInput":0,"toNode":1}],"nodes":[{"inputs":[[0,0,0,0],[0,0,0,0],[0.0,0.0,0.0]],"is_active_output":true,"name":"Material Output","outputs":[],"type":"OUTPUT_MATERIAL_BL"},{"inputs":[[1.0,1.0,1.0,1.0],1.0],"is_active_output":false,"name":"Emission","outputs":[[0,0,0,0]],"type":"EMISSION_BL"},{"inputs":[],"is_active_output":false,"name":"RGB","outputs":[[0.0,0.5,0.0,1.0]],"type":"RGB_BL"}]},"useCastShadows":true}},"name":"LOAD"},{"extensions":{"S8S_v3d_material_data":{"materialIndex":0,"nodeGraph":{"edges":[{"fromNode":1,"fromOutput":0,"toInput":0,"toNode":0},{"fromNode":2,"fromOutput":0,"toInput":0,"toNode":1}],"nodes":[{"inputs":[[0,0,0,0],[0,0,0,0],[0.0,0.0,0.0]],"is_active_output":true,"name":"Material Output","outputs":[],"type":"OUTPUT_MATERIAL_BL"},{"inputs":[[1.0,1.0,1.0,1.0],1.0],"is_active_output":false,"name":"Emission","outputs":[[0,0,0,0]],"type":"EMISSION_BL"},{"inputs":[],"is_active_output":false,"name":"RGB","outputs":[[0.5,0.0,0.0,1.0]],"type":"RGB_BL"}]},"useCastShadows":true}},"name":"RESET SCENE"},{"extensions":{"S8S_v3d_material_data":{"materialIndex":0,"nodeGraph":{"edges":[{"fromNode":1,"fromOutput":0,"toInput":0,"toNode":0},{"fromNode":2,"fromOutput":0,"toInput":0,"toNode":1}],"nodes":[{"inputs":[[0,0,0,0],[0,0,0,0],[0.0,0.0,0.0]],"is_active_output":true,"name":"Material Output","outputs":[],"type":"OUTPUT_MATERIAL_BL"},{"inputs":[[1.0,1.0,1.0,1.0],1.0],"is_active_output":false,"name":"Emission","outputs":[[0,0,0,0]],"type":"EMISSION_BL"},{"inputs":[],"is_active_output":false,"name":"RGB","outputs":[[0.0,0.0,0.5,1.0]],"type":"RGB_BL"}]},"useCastShadows":true}},"name":"SAVE"},{"extensions":{"S8S_v3d_material_data":{"materialIndex":0,"nodeGraph":{"edges":[{"fromNode":1,"fromOutput":0,"toInput":0,"toNode":0},{"fromNode":2,"fromOutput":0,"toInput":0,"toNode":1}],"nodes":[{"inputs":[[0,0,0,0],[0,0,0,0],[0.0,0.0,0.0]],"is_active_output":true,"name":"Material Output","outputs":[],"type":"OUTPUT_MATERIAL_BL"},{"inputs":[[1.0,1.0,1.0,1.0],1.0],"is_active_output":false,"name":"Emission","outputs":[[0,0,0,0]],"type":"EMISSION_BL"},{"inputs":[],"is_active_output":false,"name":"Color","outputs":[[0.0,0.0,0.5,1.0]],"type":"RGB_BL"}]},"useCastShadows":true}},"name":"Torus_Emissive"},{"extensions":{"S8S_v3d_material_data":{"materialIndex":0,"nodeGraph":{"edges":[{"fromNode":0,"fromOutput":0,"toInput":0,"toNode":1},{"fromNode":4,"fromOutput":0,"toInput":1,"toNode":2},{"fromNode":3,"fromOutput":0,"toInput":0,"toNode":2},{"fromNode":2,"fromOutput":0,"toInput":0,"toNode":0}],"nodes":[{"inputs":[[0.05087608844041824,0.05087608844041824,0.05087608844041824,1.0],1.0],"is_active_output":false,"name":"Background","outputs":[[0,0,0,0]],"type":"BACKGROUND_BL"},{"inputs":[[0,0,0,0],[0,0,0,0]],"is_active_output":true,"name":"World Output","outputs":[],"type":"OUTPUT_WORLD_BL"},{"blendType":"MIX","inputs":[0.5,[0.5,0.5,0.5,1.0],[0.0,0.0,0.0,1.0]],"is_active_output":false,"name":"Mix","outputs":[[0.0,0.0,0.0,0.0]],"type":"MIX_RGB_BL","useClamp":false},{"inputs":[],"is_active_output":false,"name":"Light Path","outputs":[0.0,0.0,0.0,0.0,0.0,0.0,0.0,0.0,0.0,0.0,0.0,0.0,0.0],"type":"LIGHT_PATH_BL"},{"inputs":[[0.0,0.0,0.0]],"is_active_output":false,"name":"Environment Texture","outputs":[[0.0,0.0,0.0,0.0]],"projection":"EQUIRECTANGULAR","texture":1,"type":"TEX_ENVIRONMENT_BL"}]},"useCastShadows":true}},"name":"Verge3D_Environment_World"}],"meshes":[{"extensions":{"S8S_v3d_mesh_data":{"colorLayers":{},"uvLayers":{"UVMap":"TEXCOORD_0"}}},"name":"Cone","primitives":[{"attributes":{"NORMAL":2,"POSITION":1,"TEXCOORD_0":3},"indices":0,"material":1,"mode":4}]},{"extensions":{"S8S_v3d_mesh_data":{"colorLayers":{},"uvLayers":{"UVMap":"TEXCOORD_0"}}},"name":"Cube","primitives":[{"attributes":{"NORMAL":6,"POSITION":5,"TEXCOORD_0":7},"indices":4,"material":2,"mode":4}]},{"extensions":{"S8S_v3d_mesh_data":{"colorLayers":{},"uvLayers":{"UVMap":"TEXCOORD_0"}}},"name":"Plane","primitives":[{"attributes":{"NORMAL":10,"POSITION":9,"TEXCOORD_0":11},"indices":8,"material":0,"mode":4}]},{"extensions":{"S8S_v3d_mesh_data":{"colorLayers":{},"uvLayers":{"UVMap":"TEXCOORD_0"}}},"name":"Plane.001","primitives":[{"attributes":{"NORMAL":14,"POSITION":13,"TEXCOORD_0":15},"indices":12,"material":3,"mode":4}]},{"extensions":{"S8S_v3d_mesh_data":{"colorLayers":{},"uvLayers":{"UVMap":"TEXCOORD_0"}}},"name":"Plane.002","primitives":[{"attributes":{"NORMAL":18,"POSITION":17,"TEXCOORD_0":19},"indices":16,"material":3,"mode":4}]},{"extensions":{"S8S_v3d_mesh_data":{"colorLayers":{},"uvLayers":{"UVMap":"TEXCOORD_0"}}},"name":"Plane.003","primitives":[{"attributes":{"NORMAL":22,"POSITION":21,"TEXCOORD_0":23},"indices":20,"material":3,"mode":4}]},{"extensions":{"S8S_v3d_mesh_data":{"colorLayers":{},"uvLayers":{"UVMap":"TEXCOORD_0"}}},"name":"Torus","primitives":[{"attributes":{"NORMAL":26,"POSITION":25,"TEXCOORD_0":27},"indices":24,"material":7,"mode":4}]}],"nodes":[{"camera":0,"children":[11],"extensions":{"S8S_v3d_node_data":{"frustumCulling":true,"groupNames":["Collection 1"],"hidden":false,"hidpiCompositing":false,"objectColor":[1.0,1.0,1.0],"objectIndex":0,"renderOrder":0}},"name":"Camera","rotation":[-0.27731430530548096,0.0,0.0,0.9607792496681213],"scale":[1.0,0.9999999403953552,0.9999999403953552],"translation":[0.0,21.269107818603516,25.01973533630371]},{"extensions":{"S8S_v3d_node_data":{"frustumCulling":true,"groupNames":["Collection 1"],"hidden":false,"hidpiCompositing":false,"objectColor":[1.0,1.0,1.0],"objectIndex":0,"renderOrder":0,"useShadows":false}},"mesh":3,"name":"SAVE_KEY_HITBOX ","rotation":[-0.0,0.7071068286895752,0.7071068286895752,0.0],"scale":[-0.7300000190734863,-0.019999980926513672,-0.8999999761581421],"translation":[3.069999933242798,0.29999998211860657,-1.0268562000703696e-08]},{"extensions":{"S8S_v3d_node_data":{"frustumCulling":true,"groupNames":["Collection 1"],"hidden":false,"hidpiCompositing":false,"objectColor":[1.0,1.0,1.0],"objectIndex":0,"renderOrder":0,"useShadows":false}},"mesh":4,"name":"LOAD_KEY_HITBOX ","rotation":[0.7071068286895752,0.0,0.0,0.7071068286895752],"scale":[0.690000057220459,1.0,0.8600000143051147],"translation":[2.919999837875366,0.28999999165534973,-9.926276689498081e-09]},{"extensions":{"S8S_v3d_node_data":{"frustumCulling":true,"groupNames":["Collection 1"],"hidden":false,"hidpiCompositing":false,"objectColor":[1.0,1.0,1.0],"objectIndex":0,"renderOrder":0,"useShadows":false}},"mesh":0,"name":"Cone","scale":[1.5,1.5,1.5],"translation":[0.0,2.0,-0.0]},{"children":[7],"extensions":{"S8S_v3d_node_data":{"curve":2,"frustumCulling":true,"groupNames":["Collection 1"],"hidden":false,"hidpiCompositing":true,"objectColor":[1.0,1.0,1.0],"objectIndex":0,"renderOrder":0,"useShadows":false}},"name":"RESET_SCENE","rotation":[-0.27731430530548096,0.0,0.0,0.9607792496681213],"scale":[1.9999982118606567,1.9999998807907104,1.9999998807907104],"translation":[-8.5,1.64646577835083,-9.893756866455078]},{"children":[4],"name":"v3d_Proxy_Node_0_RESET_SCENE","rotation":[-0.4832826852798462,0.0,-0.0,0.8754643797874451],"translation":[-0.0,7.494670867919922,8.66537094116211]},{"extensions":{"S8S_v3d_node_data":{"frustumCulling":true,"groupNames":["Collection 1"],"hidden":false,"hidpiCompositing":false,"objectColor":[1.0,1.0,1.0],"objectIndex":0,"renderOrder":0,"useShadows":false}},"mesh":1,"name":"Cube","scale":[1.5,1.5,1.5],"translation":[-7.0,2.0,-0.0]},{"extensions":{"S8S_v3d_node_data":{"frustumCulling":true,"groupNames":["Collection 1"],"hidden":false,"hidpiCompositing":false,"objectColor":[1.0,1.0,1.0],"objectIndex":0,"renderOrder":0,"useShadows":false}},"mesh":5,"name":"RESET_SCENE_HITBOX ","rotation":[0.7071068286895752,0.0,0.0,0.7071068286895752],"scale":[0.9800000190734863,1.0,0.9100000262260437],"translation":[4.210000038146973,0.26999998092651367,-9.241706067086852e-09]},{"extensions":{"S8S_v3d_node_data":{"frustumCulling":true,"groupNames":["Collection 1"],"hidden":false,"hidpiCompositing":false,"objectColor":[1.0,1.0,1.0],"objectIndex":0,"renderOrder":0,"useShadows":true}},"mesh":2,"name":"CHECKERBOARD","scale":[10.0,1.0,10.0],"translation":[0.0,0.0,3.5]},{"extensions":{"S8S_v3d_node_data":{"frustumCulling":true,"groupNames":["Collection 1"],"hidden":false,"hidpiCompositing":false,"objectColor":[1.0,1.0,1.0],"objectIndex":0,"renderOrder":0}},"name":"Camera_Target","translation":[0.0,0.0,-20.0]},{"extensions":{"S8S_v3d_node_data":{"frustumCulling":true,"groupNames":["Collection 1"],"hidden":false,"hidpiCompositing":false,"objectColor":[1.0,1.0,1.0],"objectIndex":0,"renderOrder":0,"useShadows":false}},"mesh":6,"name":"Torus","scale":[1.3333333730697632,1.5,1.3333333730697632],"translation":[7.0,1.0499999523162842,-0.0]},{"children":[13,5,15],"extensions":{"S8S_v3d_node_data":{"frustumCulling":true,"groupNames":["Collection 1"],"hidden":false,"hidpiCompositing":false,"objectColor":[1.0,1.0,1.0],"objectIndex":0,"renderOrder":0}},"name":"WORDS MASTER","rotation":[0.7071068286895752,0.0,0.0,0.7071068286895752],"scale":[0.05999999865889549,0.05999999865889549,0.05999999865889549],"translation":[0.0,0.07999993860721588,-2.0]},{"children":[2],"extensions":{"S8S_v3d_node_data":{"curve":0,"frustumCulling":true,"groupNames":["Collection 1"],"hidden":false,"hidpiCompositing":true,"objectColor":[1.0,1.0,1.0],"objectIndex":0,"renderOrder":0,"useShadows":false}},"name":"LOAD_KEY","rotation":[-0.27731430530548096,0.0,0.0,0.9607792496681213],"scale":[2.0,1.9999998807907104,1.9999998807907104],"translation":[-5.5,3.338852882385254,-10.959507942199707]},{"children":[12],"name":"v3d_Proxy_Node_0_LOAD_KEY","rotation":[-0.4832826852798462,0.0,-0.0,0.8754643797874451],"translation":[-0.0,7.494670867919922,8.66537094116211]},{"children":[1],"extensions":{"S8S_v3d_node_data":{"curve":1,"frustumCulling":true,"groupNames":["Collection 1"],"hidden":false,"hidpiCompositing":true,"objectColor":[1.0,1.0,1.0],"objectIndex":0,"renderOrder":0,"useShadows":false}},"name":"SAVE_KEY","rotation":[-0.27731430530548096,0.0,0.0,0.9607792496681213],"scale":[2.0,1.9999998807907104,1.9999998807907104],"translation":[-5.800000190734863,5.031239986419678,-12.025259017944336]},{"children":[14],"name":"v3d_Proxy_Node_0_SAVE_KEY","rotation":[-0.4832826852798462,0.0,-0.0,0.8754643797874451],"translation":[-0.0,7.494670867919922,8.66537094116211]}],"samplers":[{}],"scene":0,"scenes":[{"extensions":{"S8S_v3d_scene_data":{"aaMethod":"AUTO","iblEnvironmentMode":"PMREM","physicallyCorrectLights":true,"pmremMaxTileSize":256,"postprocessing":[{"edgeGlow":0.0,"edgeStrength":10.0,"edgeThickness":1.0,"hiddenEdgeColor":[0.10000000149011612,0.10000000149011612,0.10000000149011612,1.0],"pulsePeriod":0.0,"renderHiddenEdge":false,"type":"outline","visibleEdgeColor":[1.0,1.0,1.0,1.0]}],"shadowMap":{"esmDistanceScale":1.0,"renderReverseSided":false,"renderSingleSided":true,"type":"PCFPOISSON"},"worldMaterial":8}},"extras":{"animFrameRate":24,"coordSystem":"Z_UP_RIGHT"},"name":"Scene","nodes":[0,9,6,8,10,3]}],"textures":[{"extensions":{"S8S_v3d_texture_data":{"colorSpace":"srgb"}},"name":"checkerboard.jpg","sampler":0,"source":0},{"extensions":{"S8S_v3d_texture_data":{"colorSpace":"linear"}},"name":"environment.hdr.001","sampler":0,"source":1}]}
