{"accessors":[{"bufferView":0,"componentType":5123,"count":1284,"max":[345],"min":[0],"type":"SCALAR"},{"bufferView":1,"componentType":5126,"count":346,"max":[1.0,1.0,1.0],"min":[-1.0,-1.0,-1.0],"type":"VEC3"},{"bufferView":2,"componentType":5126,"count":346,"max":[1.0,1.0,1.0],"min":[-1.0,-1.0,-1.0],"type":"VEC3"},{"bufferView":3,"componentType":5126,"count":346,"max":[0.8737115263938904,1.0],"min":[0.125,0.0],"type":"VEC2"},{"bufferView":4,"componentType":5123,"count":1284,"max":[345],"min":[0],"type":"SCALAR"},{"bufferView":5,"componentType":5126,"count":346,"max":[1.0,1.0,1.0],"min":[-1.0,-1.0,-1.0],"type":"VEC3"},{"bufferView":6,"componentType":5126,"count":346,"max":[1.0,1.0,1.0],"min":[-1.0,-1.0,-1.0],"type":"VEC3"},{"bufferView":7,"componentType":5126,"count":346,"max":[0.8737115263938904,1.0],"min":[0.125,0.0],"type":"VEC2"},{"bufferView":8,"componentType":5123,"count":1284,"max":[345],"min":[0],"type":"SCALAR"},{"bufferView":9,"componentType":5126,"count":346,"max":[1.0,1.0,1.0],"min":[-1.0,-1.0,-1.0],"type":"VEC3"},{"bufferView":10,"componentType":5126,"count":346,"max":[1.0,1.0,1.0],"min":[-1.0,-1.0,-1.0],"type":"VEC3"},{"bufferView":11,"componentType":5126,"count":346,"max":[0.8737115263938904,1.0],"min":[0.125,0.0],"type":"VEC2"},{"bufferView":12,"componentType":5123,"count":1284,"max":[345],"min":[0],"type":"SCALAR"},{"bufferView":13,"componentType":5126,"count":346,"max":[1.0,1.0,1.0],"min":[-1.0,-1.0,-1.0],"type":"VEC3"},{"bufferView":14,"componentType":5126,"count":346,"max":[1.0,1.0,1.0],"min":[-1.0,-1.0,-1.0],"type":"VEC3"},{"bufferView":15,"componentType":5126,"count":346,"max":[0.8737115263938904,1.0],"min":[0.125,0.0],"type":"VEC2"},{"bufferView":16,"componentType":5123,"count":1284,"max":[345],"min":[0],"type":"SCALAR"},{"bufferView":17,"componentType":5126,"count":346,"max":[1.0,1.0,1.0],"min":[-1.0,-1.0,-1.0],"type":"VEC3"},{"bufferView":18,"componentType":5126,"count":346,"max":[1.0,1.0,1.0],"min":[-1.0,-1.0,-1.0],"type":"VEC3"},{"bufferView":19,"componentType":5126,"count":346,"max":[0.8737115263938904,1.0],"min":[0.125,0.0],"type":"VEC2"}],"asset":{"generator":"Soft8Soft Verge3D for Blender add-on","version":"2.0"},"bufferViews":[{"buffer":0,"byteLength":2568,"byteOffset":0,"target":34963},{"buffer":0,"byteLength":4152,"byteOffset":2568,"target":34962},{"buffer":0,"byteLength":4152,"byteOffset":6720,"target":34962},{"buffer":0,"byteLength":2768,"byteOffset":10872,"target":34962},{"buffer":0,"byteLength":2568,"byteOffset":13640,"target":34963},{"buffer":0,"byteLength":4152,"byteOffset":16208,"target":34962},{"buffer":0,"byteLength":4152,"byteOffset":20360,"target":34962},{"buffer":0,"byteLength":2768,"byteOffset":24512,"target":34962},{"buffer":0,"byteLength":2568,"byteOffset":27280,"target":34963},{"buffer":0,"byteLength":4152,"byteOffset":29848,"target":34962},{"buffer":0,"byteLength":4152,"byteOffset":34000,"target":34962},{"buffer":0,"byteLength":2768,"byteOffset":38152,"target":34962},{"buffer":0,"byteLength":2568,"byteOffset":40920,"target":34963},{"buffer":0,"byteLength":4152,"byteOffset":43488,"target":34962},{"buffer":0,"byteLength":4152,"byteOffset":47640,"target":34962},{"buffer":0,"byteLength":2768,"byteOffset":51792,"target":34962},{"buffer":0,"byteLength":2568,"byteOffset":54560,"target":34963},{"buffer":0,"byteLength":4152,"byteOffset":57128,"target":34962},{"buffer":0,"byteLength":4152,"byteOffset":61280,"target":34962},{"buffer":0,"byteLength":2768,"byteOffset":65432,"target":34962}],"buffers":[{"byteLength":68200,"uri":"GLIFTEK_Plugins_Bounding_Boxes.bin"}],"cameras":[{"extensions":{"S8S_v3d_camera_data":{"controls":"ORBIT","enablePan":false,"moveSpeed":1.0,"orbitMaxAzimuthAngle":0.7853981852531433,"orbitMaxDistance":20.0,"orbitMaxPolarAngle":1.0471975803375244,"orbitMaxZoom":100.0,"orbitMinAzimuthAngle":0.7853981852531433,"orbitMinDistance":20.0,"orbitMinPolarAngle":1.0471975803375244,"orbitMinZoom":0.009999999776482582,"orbitTarget":[0.0,0.0,-0.0],"rotateSpeed":1.0,"viewportFitInitialAspect":1.7777777777777777,"viewportFitType":"AUTO"}},"name":"Camera","perspective":{"aspectRatio":1.7777777777777777,"yfov":0.5033799372418416,"zfar":100.0,"znear":0.10000000149011612},"type":"perspective"}],"extensions":{"S8S_v3d_data":{"lights":[{"color":[1.0,1.0,1.0],"decay":2,"distance":447.2136004979594,"intensity":200000.0,"name":"Lamp","profile":"blender","shadow":{"bias":-0.0018,"cameraFar":447.2136004979594,"cameraFov":0,"cameraNear":1.0007989406585693,"enabled":true,"expBias":2.5,"mapSize":512,"radius":1.0,"slopeScaledBias":2.5},"type":"point"}]}},"extensionsUsed":["S8S_v3d_material_data","S8S_v3d_camera_data","S8S_v3d_data","S8S_v3d_mesh_data","S8S_v3d_node_data","S8S_v3d_scene_data"],"materials":[{"extensions":{"S8S_v3d_material_data":{"materialIndex":0,"nodeGraph":{"edges":[{"fromNode":0,"fromOutput":0,"toInput":0,"toNode":1}],"nodes":[{"inputs":[[0.06845368444919586,0.19323387742042542,0.8000000715255737,1.0],0.0,[1.0,0.20000000298023224,0.10000000149011612],[0.800000011920929,0.800000011920929,0.800000011920929,1.0],0.0,0.75,0.0,0.10000000149011612,0.0,0.0,0.0,0.5,1.0,0.029999999329447746,1.4500000476837158,0.0,0.0,[0.0,0.0,0.0,1.0],1.0,1.0,[0.0,0.0,0.0],[0.0,0.0,0.0],[0.0,0.0,0.0]],"is_active_output":false,"name":"Principled BSDF","outputs":[[0,0,0,0]],"type":"BSDF_PRINCIPLED_BL"},{"inputs":[[0,0,0,0],[0,0,0,0],[0.0,0.0,0.0]],"is_active_output":true,"name":"Material Output","outputs":[],"type":"OUTPUT_MATERIAL_BL"}]},"useCastShadows":true}},"name":"Cube_Blue"},{"extensions":{"S8S_v3d_material_data":{"materialIndex":0,"nodeGraph":{"edges":[{"fromNode":0,"fromOutput":0,"toInput":0,"toNode":1}],"nodes":[{"inputs":[[0.17335481941699982,0.17335481941699982,0.17335481941699982,1.0],0.0,[1.0,0.20000000298023224,0.10000000149011612],[0.800000011920929,0.800000011920929,0.800000011920929,1.0],0.0,0.75,0.0,0.10000000149011612,0.0,0.0,0.0,0.5,1.0,0.029999999329447746,1.4500000476837158,0.0,0.0,[0.0,0.0,0.0,1.0],1.0,1.0,[0.0,0.0,0.0],[0.0,0.0,0.0],[0.0,0.0,0.0]],"is_active_output":false,"name":"Principled BSDF","outputs":[[0,0,0,0]],"type":"BSDF_PRINCIPLED_BL"},{"inputs":[[0,0,0,0],[0,0,0,0],[0.0,0.0,0.0]],"is_active_output":true,"name":"Material Output","outputs":[],"type":"OUTPUT_MATERIAL_BL"}]},"useCastShadows":true}},"name":"Cube_Gray"},{"extensions":{"S8S_v3d_material_data":{"materialIndex":0,"nodeGraph":{"edges":[{"fromNode":0,"fromOutput":0,"toInput":0,"toNode":1}],"nodes":[{"inputs":[[0.040497515350580215,0.27383068203926086,0.05128484219312668,1.0],0.0,[1.0,0.20000000298023224,0.10000000149011612],[0.800000011920929,0.800000011920929,0.800000011920929,1.0],0.0,0.75,0.0,0.10000000149011612,0.0,0.0,0.0,0.5,1.0,0.029999999329447746,1.4500000476837158,0.0,0.0,[0.0,0.0,0.0,1.0],1.0,1.0,[0.0,0.0,0.0],[0.0,0.0,0.0],[0.0,0.0,0.0]],"is_active_output":false,"name":"Principled BSDF","outputs":[[0,0,0,0]],"type":"BSDF_PRINCIPLED_BL"},{"inputs":[[0,0,0,0],[0,0,0,0],[0.0,0.0,0.0]],"is_active_output":true,"name":"Material Output","outputs":[],"type":"OUTPUT_MATERIAL_BL"}]},"useCastShadows":true}},"name":"Cube_Green"},{"extensions":{"S8S_v3d_material_data":{"materialIndex":0,"nodeGraph":{"edges":[{"fromNode":0,"fromOutput":0,"toInput":0,"toNode":1}],"nodes":[{"inputs":[[0.1424001157283783,0.021796105429530144,0.11181246489286423,1.0],0.0,[1.0,0.20000000298023224,0.10000000149011612],[0.800000011920929,0.800000011920929,0.800000011920929,1.0],0.0,0.75,0.0,0.10000000149011612,0.0,0.0,0.0,0.5,1.0,0.029999999329447746,1.4500000476837158,0.0,0.0,[0.0,0.0,0.0,1.0],1.0,1.0,[0.0,0.0,0.0],[0.0,0.0,0.0],[0.0,0.0,0.0]],"is_active_output":false,"name":"Principled BSDF","outputs":[[0,0,0,0]],"type":"BSDF_PRINCIPLED_BL"},{"inputs":[[0,0,0,0],[0,0,0,0],[0.0,0.0,0.0]],"is_active_output":true,"name":"Material Output","outputs":[],"type":"OUTPUT_MATERIAL_BL"}]},"useCastShadows":true}},"name":"Cube_Purple"},{"extensions":{"S8S_v3d_material_data":{"materialIndex":0,"nodeGraph":{"edges":[{"fromNode":0,"fromOutput":0,"toInput":0,"toNode":1}],"nodes":[{"inputs":[[0.8000000715255737,0.08665655553340912,0.09980560839176178,1.0],0.0,[1.0,0.20000000298023224,0.10000000149011612],[0.800000011920929,0.800000011920929,0.800000011920929,1.0],0.0,0.75,0.0,0.10000000149011612,0.0,0.0,0.0,0.5,1.0,0.029999999329447746,1.4500000476837158,0.0,0.0,[0.0,0.0,0.0,1.0],1.0,1.0,[0.0,0.0,0.0],[0.0,0.0,0.0],[0.0,0.0,0.0]],"is_active_output":false,"name":"Principled BSDF","outputs":[[0,0,0,0]],"type":"BSDF_PRINCIPLED_BL"},{"inputs":[[0,0,0,0],[0,0,0,0],[0.0,0.0,0.0]],"is_active_output":true,"name":"Material Output","outputs":[],"type":"OUTPUT_MATERIAL_BL"}]},"useCastShadows":true}},"name":"Cube_Red"},{"extensions":{"S8S_v3d_material_data":{"materialIndex":0,"nodeGraph":{"edges":[{"fromNode":0,"fromOutput":0,"toInput":0,"toNode":1}],"nodes":[{"inputs":[[0.05087608844041824,0.05087608844041824,0.05087608844041824,1.0],1.0],"is_active_output":false,"name":"Background","outputs":[[0,0,0,0]],"type":"BACKGROUND_BL"},{"inputs":[[0,0,0,0],[0,0,0,0]],"is_active_output":true,"name":"World Output","outputs":[],"type":"OUTPUT_WORLD_BL"}]},"useCastShadows":true}},"name":"Verge3D_Environment_World"}],"meshes":[{"extensions":{"S8S_v3d_mesh_data":{"colorLayers":{},"uvLayers":{"UVMap":"TEXCOORD_0"}}},"name":"Cube","primitives":[{"attributes":{"NORMAL":2,"POSITION":1,"TEXCOORD_0":3},"indices":0,"material":4,"mode":4}]},{"extensions":{"S8S_v3d_mesh_data":{"colorLayers":{},"uvLayers":{"UVMap":"TEXCOORD_0"}}},"name":"Cube.001","primitives":[{"attributes":{"NORMAL":6,"POSITION":5,"TEXCOORD_0":7},"indices":4,"material":0,"mode":4}]},{"extensions":{"S8S_v3d_mesh_data":{"colorLayers":{},"uvLayers":{"UVMap":"TEXCOORD_0"}}},"name":"Cube.002","primitives":[{"attributes":{"NORMAL":10,"POSITION":9,"TEXCOORD_0":11},"indices":8,"material":2,"mode":4}]},{"extensions":{"S8S_v3d_mesh_data":{"colorLayers":{},"uvLayers":{"UVMap":"TEXCOORD_0"}}},"name":"Cube.003","primitives":[{"attributes":{"NORMAL":14,"POSITION":13,"TEXCOORD_0":15},"indices":12,"material":3,"mode":4}]},{"extensions":{"S8S_v3d_mesh_data":{"colorLayers":{},"uvLayers":{"UVMap":"TEXCOORD_0"}}},"name":"Cube.004","primitives":[{"attributes":{"NORMAL":18,"POSITION":17,"TEXCOORD_0":19},"indices":16,"material":1,"mode":4}]}],"nodes":[{"camera":0,"extensions":{"S8S_v3d_node_data":{"frustumCulling":true,"groupNames":["Collection 1"],"hidden":false,"hidpiCompositing":false,"objectColor":[0.0,0.0,0.0],"objectIndex":0,"renderOrder":0}},"name":"Camera","rotation":[-0.20997294783592224,0.3857799768447876,0.09062846004962921,0.8937962055206299],"scale":[1.0,0.9999999403953552,0.9999998807907104],"translation":[7.226052284240723,5.1113457679748535,6.946681022644043]},{"extensions":{"S8S_v3d_node_data":{"frustumCulling":true,"groupNames":["Collection 1"],"hidden":false,"hidpiCompositing":false,"light":0,"objectColor":[0.0,0.0,0.0],"objectIndex":0,"renderOrder":0}},"name":"Lamp","rotation":[-0.7071068286895752,0.0,0.0,0.7071068286895752],"scale":[1.0,0.9999999403953552,0.9999999403953552],"translation":[30.0,50.0,0.0]},{"extensions":{"S8S_v3d_node_data":{"constraints":[{"maxX":4.0,"maxY":"Infinity","maxZ":4.0,"minX":-4.0,"minY":"-Infinity","minZ":-4.0,"mute":false,"name":"Limit Location","type":"limitLocation"}],"frustumCulling":true,"groupNames":["Cubes"],"hidden":false,"hidpiCompositing":false,"objectColor":[1.0,1.0,1.0],"objectIndex":0,"renderOrder":0,"useShadows":true}},"mesh":3,"name":"Cube_Purple","translation":[0.0,1.0,-3.0]},{"extensions":{"S8S_v3d_node_data":{"constraints":[{"maxX":4.0,"maxY":"Infinity","maxZ":4.0,"minX":-4.0,"minY":"-Infinity","minZ":-4.0,"mute":false,"name":"Limit Location","type":"limitLocation"}],"frustumCulling":true,"groupNames":["Cubes"],"hidden":false,"hidpiCompositing":false,"objectColor":[1.0,1.0,1.0],"objectIndex":0,"renderOrder":0,"useShadows":true}},"mesh":2,"name":"Cube_Green","translation":[3.0,1.0,-0.0]},{"extensions":{"S8S_v3d_node_data":{"constraints":[{"maxX":4.0,"maxY":"Infinity","maxZ":4.0,"minX":-4.0,"minY":"-Infinity","minZ":-4.0,"mute":false,"name":"Limit Location","type":"limitLocation"}],"frustumCulling":true,"groupNames":["Cubes"],"hidden":false,"hidpiCompositing":false,"objectColor":[1.0,1.0,1.0],"objectIndex":0,"renderOrder":0,"useShadows":true}},"mesh":0,"name":"Cube_Red","translation":[0.0,1.0,-0.0]},{"extensions":{"S8S_v3d_node_data":{"constraints":[{"maxX":4.0,"maxY":"Infinity","maxZ":4.0,"minX":-4.0,"minY":"-Infinity","minZ":-4.0,"mute":false,"name":"Limit Location","type":"limitLocation"}],"frustumCulling":true,"groupNames":["Cubes"],"hidden":false,"hidpiCompositing":false,"objectColor":[1.0,1.0,1.0],"objectIndex":0,"renderOrder":0,"useShadows":true}},"mesh":4,"name":"Cube_Gray","translation":[-3.0,1.0,3.0]},{"extensions":{"S8S_v3d_node_data":{"constraints":[{"maxX":4.0,"maxY":"Infinity","maxZ":4.0,"minX":-4.0,"minY":"-Infinity","minZ":-4.0,"mute":false,"name":"Limit Location","type":"limitLocation"}],"frustumCulling":true,"groupNames":["Cubes"],"hidden":false,"hidpiCompositing":false,"objectColor":[1.0,1.0,1.0],"objectIndex":0,"renderOrder":0,"useShadows":true}},"mesh":1,"name":"Cube_Blue","translation":[-3.0,1.0,-0.0]}],"scene":0,"scenes":[{"extensions":{"S8S_v3d_scene_data":{"aaMethod":"AUTO","iblEnvironmentMode":"PMREM","physicallyCorrectLights":true,"pmremMaxTileSize":256,"shadowMap":{"esmDistanceScale":1.0,"renderReverseSided":false,"renderSingleSided":true,"type":"PCFPOISSON"},"worldMaterial":5}},"extras":{"animFrameRate":24,"coordSystem":"Z_UP_RIGHT"},"name":"Scene","nodes":[1,0,6,4,3,2,5]}]}
